<?xml version="1.0" encoding="utf-8"?>
<!-- Generator: Adobe Illustrator 25.4.1, SVG Export Plug-In . SVG Version: 6.00 Build 0)  -->
<svg version="1.1" id="Layer_1" xmlns="http://www.w3.org/2000/svg" xmlns:xlink="http://www.w3.org/1999/xlink" x="0px" y="0px"
	 viewBox="0 0 1288.8 344.1" style="enable-background:new 0 0 1288.8 344.1;" xml:space="preserve">
<style type="text/css">
	.st0{fill:#F4F4F4;stroke:#F4F4F4;stroke-width:2;stroke-miterlimit:10;}
	.st1{fill:#4E5CA6;}
	.st2{enable-background:new    ;}
	.st3{fill:#303031;}
</style>
<path class="st0" d="M97.9,7.5h150.5c49.2,0,89.1,39.9,89.1,89.1v150.5c0,49.2-39.9,89.1-89.1,89.1H97.9
	c-49.2,0-89.1-39.9-89.1-89.1V96.6C8.8,47.4,48.7,7.5,97.9,7.5z"/>
<path class="st1" d="M165.4,287.8c-6.6,0-13.1-0.2-19.4-0.6s-12.5-1-18.6-1.8c-6.1-0.8-12-1.7-17.6-2.7s-11-2.2-16.2-3.6v-46.2
	c6.8,0.6,14.1,1.1,22,1.5c7.9,0.4,15.9,0.7,24,0.9c8.1,0.2,15.6,0.3,22.6,0.3c5.5,0.1,11.1-0.4,16.5-1.5c4.4-1,7.7-2.6,9.9-4.8
	c2.2-2.2,3.3-5.2,3.3-9v-3.6c0-4.4-1.5-7.7-4.6-9.9c-3.2-2.2-7.1-3.4-11-3.3h-15.8c-23.2,0-40.8-5.1-52.8-15.3
	c-12-10.2-18-27.3-18-51.3V127c0-22,6.6-38.5,19.8-49.3s32.2-16.3,57-16.3c8.9,0,17.7,0.4,26.6,1.3c8.3,0.9,16.1,2,23.4,3.3
	c7.3,1.3,13.9,2.6,19.7,4v46.2c-9.2-0.8-19.6-1.5-31.1-2c-11.5-0.5-21.9-0.8-31.4-0.8c-5,0-10,0.4-15,1.2c-4.4,0.8-7.8,2.4-10.2,4.8
	c-2.4,2.4-3.6,5.9-3.6,10.5v3c0,5,1.6,8.8,4.8,11.4c3.2,2.6,8.1,3.9,14.7,3.9h19.8c14,0,25.6,2.6,34.9,7.9c9,5,16.3,12.5,21,21.6
	c4.7,9.1,7,19.4,7.1,31v9.9c0,19-3.3,33.5-9.9,43.5c-6.6,10-16,16.8-28.2,20.2C197,286,182.4,287.8,165.4,287.8z"/>
<path class="st1" d="M93.7,232.9c-3.1,5.2-5.1,11.1-5.9,17.1c-1.2,10.1,0.9,20.3,5.9,29.1V232.9z"/>
<g class="st2">
</g>
</svg>
